<?xml version="1.0" encoding="UTF-8"?>
<svg xmlns="http://www.w3.org/2000/svg" xmlns:xlink="http://www.w3.org/1999/xlink" viewBox="0 0 32 32" width="32px" height="32px">
<g id="surface95431321">
<rect x="0" y="0" width="32" height="32" style="fill:rgb(4.313726%,8.235294%,13.725491%);fill-opacity:1;stroke:none;"/>
<path style=" stroke:none;fill-rule:nonzero;fill:rgb(100%,100%,100%);fill-opacity:1;" d="M 16 1.28125 C 7.878906 1.28125 1.28125 7.878906 1.28125 16 C 1.28125 24.121094 7.878906 30.71875 16 30.71875 C 24.121094 30.71875 30.71875 24.121094 30.71875 16 C 30.71875 7.878906 24.121094 1.28125 16 1.28125 Z M 16 2.558594 C 23.429688 2.558594 29.441406 8.570312 29.441406 16 C 29.441406 23.429688 23.429688 29.441406 16 29.441406 C 8.570312 29.441406 2.558594 23.429688 2.558594 16 C 2.558594 8.570312 8.570312 2.558594 16 2.558594 Z M 17.011719 6.398438 C 15.3125 6.398438 14.027344 6.953125 13.234375 7.9375 C 12.441406 8.917969 12.160156 10.226562 12.160156 11.664062 L 12.160156 12.800781 L 10.878906 12.800781 C 10.527344 12.800781 10.238281 13.085938 10.238281 13.441406 L 10.238281 16.640625 C 10.238281 16.992188 10.527344 17.28125 10.878906 17.28125 L 12.160156 17.28125 L 12.160156 24.960938 C 12.160156 25.3125 12.445312 25.601562 12.800781 25.601562 L 16.640625 25.601562 C 16.992188 25.601562 17.28125 25.3125 17.28125 24.960938 L 17.28125 17.28125 L 19.839844 17.28125 C 20.144531 17.28125 20.40625 17.0625 20.46875 16.765625 L 21.109375 13.566406 C 21.144531 13.378906 21.097656 13.183594 20.976562 13.035156 C 20.851562 12.886719 20.671875 12.800781 20.480469 12.800781 L 17.28125 12.800781 L 17.28125 11.394531 C 17.28125 11.085938 17.300781 11.089844 17.390625 11.03125 C 17.480469 10.972656 17.804688 10.878906 18.375 10.878906 L 20.480469 10.878906 C 20.832031 10.878906 21.121094 10.59375 21.121094 10.238281 L 21.121094 7.679688 C 21.121094 7.410156 20.949219 7.167969 20.695312 7.078125 C 20.695312 7.078125 18.851562 6.398438 17.011719 6.398438 Z M 17.011719 7.679688 C 18.222656 7.679688 19.34375 8.007812 19.839844 8.160156 L 19.839844 9.601562 L 18.375 9.601562 C 17.703125 9.601562 17.160156 9.652344 16.695312 9.957031 C 16.226562 10.261719 16 10.84375 16 11.394531 L 16 13.441406 C 16 13.792969 16.285156 14.078125 16.640625 14.078125 L 19.699219 14.078125 L 19.316406 16 L 16.640625 16 C 16.285156 16 16 16.285156 16 16.640625 L 16 24.320312 L 13.441406 24.320312 L 13.441406 16.640625 C 13.441406 16.285156 13.152344 16 12.800781 16 L 11.519531 16 L 11.519531 14.078125 L 12.800781 14.078125 C 13.152344 14.078125 13.441406 13.792969 13.441406 13.441406 L 13.441406 11.664062 C 13.441406 10.398438 13.699219 9.394531 14.230469 8.742188 C 14.757812 8.085938 15.574219 7.679688 17.011719 7.679688 Z M 17.011719 7.679688 "/>
</g>
</svg>
