<?xml version="1.0" encoding="UTF-8"?>
<svg xmlns="http://www.w3.org/2000/svg" xmlns:xlink="http://www.w3.org/1999/xlink" viewBox="0 0 32 32" width="32px" height="32px">
<g id="surface95443563">
<rect x="0" y="0" width="32" height="32" style="fill:rgb(4.313726%,8.235294%,13.725491%);fill-opacity:1;stroke:none;"/>
<path style=" stroke:none;fill-rule:nonzero;fill:rgb(100%,100%,100%);fill-opacity:1;" d="M 16 1.28125 C 7.878906 1.28125 1.28125 7.878906 1.28125 16 C 1.28125 24.121094 7.878906 30.71875 16 30.71875 C 24.121094 30.71875 30.71875 24.121094 30.71875 16 C 30.71875 7.878906 24.121094 1.28125 16 1.28125 Z M 16 2.558594 C 23.429688 2.558594 29.441406 8.570312 29.441406 16 C 29.441406 23.429688 23.429688 29.441406 16 29.441406 C 8.570312 29.441406 2.558594 23.429688 2.558594 16 C 2.558594 8.570312 8.570312 2.558594 16 2.558594 Z M 19.644531 8.996094 C 17.339844 8.996094 15.457031 10.878906 15.457031 13.183594 C 15.457031 13.199219 15.460938 13.214844 15.460938 13.230469 C 13.019531 12.90625 10.863281 11.699219 9.378906 9.882812 C 9.246094 9.71875 9.042969 9.632812 8.832031 9.648438 C 8.625 9.664062 8.4375 9.78125 8.328125 9.964844 C 7.96875 10.582031 7.765625 11.304688 7.765625 12.070312 C 7.765625 12.75 7.953125 13.378906 8.242188 13.949219 C 7.945312 14.011719 7.734375 14.273438 7.734375 14.574219 L 7.734375 14.621094 C 7.734375 15.859375 8.3125 16.929688 9.171875 17.699219 C 8.996094 17.867188 8.933594 18.121094 9.007812 18.355469 C 9.363281 19.464844 10.195312 20.335938 11.238281 20.828125 C 10.40625 21.214844 9.511719 21.496094 8.523438 21.496094 C 8.261719 21.496094 8.007812 21.480469 7.757812 21.453125 C 7.460938 21.414062 7.175781 21.589844 7.078125 21.871094 C 6.976562 22.152344 7.082031 22.464844 7.335938 22.625 C 9 23.695312 10.988281 24.320312 13.113281 24.320312 C 16.550781 24.320312 19.269531 22.875 21.082031 20.816406 C 22.898438 18.757812 23.84375 16.097656 23.84375 13.59375 C 23.84375 13.519531 23.839844 13.445312 23.835938 13.371094 C 24.460938 12.871094 25.046875 12.320312 25.492188 11.65625 C 25.640625 11.429688 25.632812 11.132812 25.472656 10.917969 C 25.3125 10.699219 25.03125 10.609375 24.769531 10.6875 C 24.875 10.484375 25.019531 10.3125 25.089844 10.09375 C 25.171875 9.839844 25.089844 9.5625 24.882812 9.398438 C 24.671875 9.230469 24.386719 9.210938 24.15625 9.347656 C 23.597656 9.679688 22.96875 9.898438 22.316406 10.046875 C 21.585938 9.425781 20.675781 8.996094 19.644531 8.996094 Z M 19.644531 10.277344 C 20.484375 10.277344 21.234375 10.628906 21.765625 11.195312 C 21.914062 11.355469 22.136719 11.425781 22.355469 11.386719 C 22.449219 11.367188 22.527344 11.304688 22.625 11.28125 C 22.613281 11.289062 22.605469 11.300781 22.59375 11.308594 C 22.34375 11.457031 22.226562 11.753906 22.308594 12.03125 C 22.386719 12.3125 22.644531 12.5 22.933594 12.496094 C 22.886719 12.53125 22.863281 12.582031 22.816406 12.617188 C 22.644531 12.742188 22.542969 12.949219 22.550781 13.164062 C 22.558594 13.304688 22.5625 13.449219 22.5625 13.59375 C 22.5625 15.773438 21.722656 18.15625 20.125 19.96875 C 18.527344 21.78125 16.199219 23.039062 13.113281 23.039062 C 12.054688 23.039062 11.058594 22.828125 10.113281 22.507812 C 11.292969 22.257812 12.40625 21.839844 13.324219 21.121094 C 13.535156 20.957031 13.617188 20.671875 13.53125 20.417969 C 13.449219 20.160156 13.210938 19.984375 12.941406 19.980469 C 12.035156 19.964844 11.335938 19.449219 10.816406 18.789062 C 11.007812 18.765625 11.203125 18.765625 11.386719 18.714844 C 11.671875 18.636719 11.867188 18.371094 11.859375 18.074219 C 11.847656 17.777344 11.636719 17.527344 11.34375 17.46875 C 10.285156 17.253906 9.460938 16.460938 9.160156 15.4375 C 9.433594 15.503906 9.671875 15.648438 9.960938 15.660156 C 10.246094 15.667969 10.5 15.488281 10.589844 15.214844 C 10.675781 14.941406 10.574219 14.648438 10.335938 14.488281 C 9.554688 13.964844 9.042969 13.082031 9.042969 12.070312 C 9.042969 11.859375 9.15625 11.691406 9.199219 11.496094 C 11.015625 13.296875 13.433594 14.492188 16.160156 14.628906 C 16.359375 14.640625 16.554688 14.554688 16.683594 14.398438 C 16.8125 14.246094 16.859375 14.039062 16.8125 13.84375 C 16.765625 13.632812 16.738281 13.410156 16.738281 13.183594 C 16.738281 11.570312 18.03125 10.277344 19.644531 10.277344 Z M 19.644531 10.277344 "/>
</g>
</svg>
